<?xml version="1.0" encoding="utf-8"?>
<!-- Generator: Adobe Illustrator 23.0.1, SVG Export Plug-In . SVG Version: 6.00 Build 0)  -->
<svg version="1.1" id="Layer_1" xmlns="http://www.w3.org/2000/svg" xmlns:xlink="http://www.w3.org/1999/xlink" x="0px" y="0px"
	 viewBox="0 0 1920 1080" style="enable-background:new 0 0 1920 1080;" xml:space="preserve">
<style type="text/css">
	.st0{fill:#118BEF;}
	.st1{fill:#FF3131;}
	.st2{fill:#FFF22E;}
	.st3{fill:none;stroke:#5111CC;stroke-width:17;stroke-miterlimit:10;}
</style>
<rect class="st0" width="1918" height="1079"/>
<ellipse class="st1" cx="960" cy="550.54" rx="664" ry="140.12"/>
<g>
	<g>
		<g>
			<path class="st2" d="M571.04,640.44c-0.71,5.2-2.61,9.63-5.68,13.3c-3.08,3.66-6.62,6.21-10.64,7.63
				c-4.02,1.42-8.16,1.47-12.41,0.18c-4.26-1.3-7.8-4.43-10.64-9.4c-2.37-4.02-3.72-8.21-4.08-12.59
				c-0.35-4.37-0.77-8.92-1.24-13.66c-0.48-5.2-1.01-9.75-1.6-13.65c-0.59-3.9-1.24-8.45-1.95-13.66
				c-2.13-14.19-4.49-28.2-7.09-42.03c-2.61-13.83-5.56-27.72-8.87-41.68c-4.73,11.83-9.22,23.53-13.48,35.11
				c-4.26,11.59-8.51,23.29-12.77,35.11c-3.31,8.75-6.56,17.56-9.75,26.42c-3.19,8.87-6.92,17.44-11.17,25.72
				c-1.42,2.84-3.78,5.14-7.09,6.92c-3.31,1.77-6.86,2.78-10.64,3.02c-3.79,0.24-7.33-0.29-10.64-1.6c-3.31-1.3-5.8-3.49-7.45-6.56
				c-10.17-19.62-20.22-39.13-30.15-58.52c-9.93-19.39-19.86-38.89-29.79-58.52c-1.19,12.06-2.25,24.18-3.19,36.36
				c-0.95,12.18-2.01,24.3-3.19,36.35c-0.24,3.78-0.48,8.4-0.71,13.83c-0.24,5.44-0.65,10.94-1.24,16.49
				c-0.59,5.56-1.3,10.88-2.13,15.96c-0.83,5.09-2.19,9.04-4.08,11.88c-2.84,4.73-6.56,7.8-11.17,9.22
				c-4.61,1.42-9.1,1.54-13.48,0.35c-4.38-1.19-8.04-3.61-11-7.27c-2.96-3.67-4.32-8.34-4.08-14.01c0.47-9.69,1.3-19.27,2.48-28.73
				c1.18-9.45,2.24-19.03,3.19-28.73c1.89-21.04,3.84-41.97,5.85-62.78c2.01-20.8,3.96-41.85,5.85-63.13
				c0.47-6.14,1.71-11.82,3.72-17.02c2.01-5.2,6.32-8.87,12.95-11c2.6-0.94,5.32-1.3,8.16-1.06c2.84,0.24,5.44,1.06,7.8,2.48
				c5.2,3.31,9.28,7.86,12.24,13.65c2.95,5.8,5.73,11.29,8.34,16.49c4.49,8.51,8.87,17.09,13.12,25.72
				c4.26,8.63,8.51,17.2,12.77,25.71c5.2,10.88,10.46,21.58,15.78,32.1c5.32,10.52,10.82,21.1,16.49,31.74
				c1.42-3.55,2.78-7.09,4.08-10.64c1.3-3.55,2.66-7.09,4.08-10.64c2.6-6.15,5.02-12.35,7.27-18.62c2.24-6.26,4.55-12.47,6.92-18.62
				c3.31-8.04,6.44-15.96,9.4-23.76c2.95-7.8,5.85-15.72,8.69-23.76c2.36-5.91,4.61-12.29,6.74-19.15
				c2.13-6.86,5.55-12.65,10.29-17.38c3.31-3.55,6.92-5.67,10.82-6.38c3.9-0.71,7.56-0.41,11,0.89c3.43,1.3,6.5,3.49,9.22,6.56
				c2.72,3.08,4.67,6.62,5.85,10.64c1.42,5.44,3.07,11.59,4.97,18.44c1.89,6.86,3.55,13.01,4.97,18.44
				c2.6,9.93,4.96,19.68,7.09,29.26c2.13,9.58,4.13,19.33,6.03,29.26c3.31,16.32,6.21,32.45,8.69,48.42
				c2.48,15.96,4.67,32.1,6.56,48.41V640.44z"/>
			<path class="st3" d="M571.04,640.44c-0.71,5.2-2.61,9.63-5.68,13.3c-3.08,3.66-6.62,6.21-10.64,7.63
				c-4.02,1.42-8.16,1.47-12.41,0.18c-4.26-1.3-7.8-4.43-10.64-9.4c-2.37-4.02-3.72-8.21-4.08-12.59
				c-0.35-4.37-0.77-8.92-1.24-13.66c-0.48-5.2-1.01-9.75-1.6-13.65c-0.59-3.9-1.24-8.45-1.95-13.66
				c-2.13-14.19-4.49-28.2-7.09-42.03c-2.61-13.83-5.56-27.72-8.87-41.68c-4.73,11.83-9.22,23.53-13.48,35.11
				c-4.26,11.59-8.51,23.29-12.77,35.11c-3.31,8.75-6.56,17.56-9.75,26.42c-3.19,8.87-6.92,17.44-11.17,25.72
				c-1.42,2.84-3.78,5.14-7.09,6.92c-3.31,1.77-6.86,2.78-10.64,3.02c-3.79,0.24-7.33-0.29-10.64-1.6c-3.31-1.3-5.8-3.49-7.45-6.56
				c-10.17-19.62-20.22-39.13-30.15-58.52c-9.93-19.39-19.86-38.89-29.79-58.52c-1.19,12.06-2.25,24.18-3.19,36.36
				c-0.95,12.18-2.01,24.3-3.19,36.35c-0.24,3.78-0.48,8.4-0.71,13.83c-0.24,5.44-0.65,10.94-1.24,16.49
				c-0.59,5.56-1.3,10.88-2.13,15.96c-0.83,5.09-2.19,9.04-4.08,11.88c-2.84,4.73-6.56,7.8-11.17,9.22
				c-4.61,1.42-9.1,1.54-13.48,0.35c-4.38-1.19-8.04-3.61-11-7.27c-2.96-3.67-4.32-8.34-4.08-14.01c0.47-9.69,1.3-19.27,2.48-28.73
				c1.18-9.45,2.24-19.03,3.19-28.73c1.89-21.04,3.84-41.97,5.85-62.78c2.01-20.8,3.96-41.85,5.85-63.13
				c0.47-6.14,1.71-11.82,3.72-17.02c2.01-5.2,6.32-8.87,12.95-11c2.6-0.94,5.32-1.3,8.16-1.06c2.84,0.24,5.44,1.06,7.8,2.48
				c5.2,3.31,9.28,7.86,12.24,13.65c2.95,5.8,5.73,11.29,8.34,16.49c4.49,8.51,8.87,17.09,13.12,25.72
				c4.26,8.63,8.51,17.2,12.77,25.71c5.2,10.88,10.46,21.58,15.78,32.1c5.32,10.52,10.82,21.1,16.49,31.74
				c1.42-3.55,2.78-7.09,4.08-10.64c1.3-3.55,2.66-7.09,4.08-10.64c2.6-6.15,5.02-12.35,7.27-18.62c2.24-6.26,4.55-12.47,6.92-18.62
				c3.31-8.04,6.44-15.96,9.4-23.76c2.95-7.8,5.85-15.72,8.69-23.76c2.36-5.91,4.61-12.29,6.74-19.15
				c2.13-6.86,5.55-12.65,10.29-17.38c3.31-3.55,6.92-5.67,10.82-6.38c3.9-0.71,7.56-0.41,11,0.89c3.43,1.3,6.5,3.49,9.22,6.56
				c2.72,3.08,4.67,6.62,5.85,10.64c1.42,5.44,3.07,11.59,4.97,18.44c1.89,6.86,3.55,13.01,4.97,18.44
				c2.6,9.93,4.96,19.68,7.09,29.26c2.13,9.58,4.13,19.33,6.03,29.26c3.31,16.32,6.21,32.45,8.69,48.42
				c2.48,15.96,4.67,32.1,6.56,48.41V640.44z"/>
		</g>
		<g>
			<path class="st2" d="M721.42,605.68c4.26,0.24,7.98,1.36,11.17,3.37c3.19,2.01,5.79,4.43,7.8,7.27c2.01,2.84,3.19,6.09,3.55,9.75
				c0.35,3.67-0.42,7.39-2.31,11.17c-0.71,1.66-2.19,3.61-4.43,5.85c-2.25,2.25-4.32,3.61-6.21,4.08
				c-15.13,4.49-30.68,7.27-46.64,8.34c-15.96,1.06-31.74,0.76-47.35-0.89c-4.49-0.48-9.4-0.95-14.72-1.42
				c-5.32-0.48-9.99-2.01-14.01-4.61c-7.33-4.73-11-11.47-11-20.22v-151.1c-2.6-1.89-4.73-4.26-6.38-7.09
				c-1.66-2.84-2.66-5.85-3.02-9.05c-0.35-3.19,0.05-6.26,1.24-9.22c1.18-2.95,3.19-5.5,6.03-7.63c4.73-3.78,10.16-6.32,16.32-7.63
				c6.15-1.3,12.18-2.42,18.09-3.37c12.29-1.89,24.59-2.84,36.89-2.84c12.29,0,24.83-0.12,37.6-0.35c3.78,0,8.16-0.29,13.12-0.89
				c4.97-0.59,9.34-0.18,13.12,1.24c4.49,1.66,8.04,4.26,10.64,7.8c2.6,3.55,4.13,7.33,4.61,11.35c0.47,4.02-0.3,7.92-2.31,11.71
				c-2.01,3.79-5.5,6.74-10.46,8.87c-5.91,2.37-12.24,3.43-18.98,3.19c-6.74-0.23-13.18-0.35-19.33-0.35
				c-8.99,0-17.97,0.12-26.96,0.35c-8.99,0.24-17.97,0.95-26.96,2.13v49.3c8.51,0.48,17.03,0.48,25.54,0
				c8.51-0.47,17.03-1.06,25.54-1.77c3.78-0.23,7.56-0.59,11.35-1.06c3.78-0.47,7.68-0.47,11.7,0c5.2,0.71,9.22,2.84,12.06,6.38
				c2.84,3.55,4.55,7.51,5.14,11.88c0.59,4.38-0.18,8.69-2.31,12.95c-2.13,4.26-5.56,7.33-10.28,9.22
				c-4.02,1.66-9.46,2.9-16.32,3.72c-6.86,0.83-14.07,1.42-21.64,1.77c-7.57,0.35-15.02,0.53-22.35,0.53
				c-7.33,0-13.48-0.12-18.44-0.36v43.63c13,1.66,26.13,1.89,39.37,0.71c13.24-1.18,26.25-3.42,39.01-6.74H721.42z"/>
			<path class="st3" d="M721.42,605.68c4.26,0.24,7.98,1.36,11.17,3.37c3.19,2.01,5.79,4.43,7.8,7.27c2.01,2.84,3.19,6.09,3.55,9.75
				c0.35,3.67-0.42,7.39-2.31,11.17c-0.71,1.66-2.19,3.61-4.43,5.85c-2.25,2.25-4.32,3.61-6.21,4.08
				c-15.13,4.49-30.68,7.27-46.64,8.34c-15.96,1.06-31.74,0.76-47.35-0.89c-4.49-0.48-9.4-0.95-14.72-1.42
				c-5.32-0.48-9.99-2.01-14.01-4.61c-7.33-4.73-11-11.47-11-20.22v-151.1c-2.6-1.89-4.73-4.26-6.38-7.09
				c-1.66-2.84-2.66-5.85-3.02-9.05c-0.35-3.19,0.05-6.26,1.24-9.22c1.18-2.95,3.19-5.5,6.03-7.63c4.73-3.78,10.16-6.32,16.32-7.63
				c6.15-1.3,12.18-2.42,18.09-3.37c12.29-1.89,24.59-2.84,36.89-2.84c12.29,0,24.83-0.12,37.6-0.35c3.78,0,8.16-0.29,13.12-0.89
				c4.97-0.59,9.34-0.18,13.12,1.24c4.49,1.66,8.04,4.26,10.64,7.8c2.6,3.55,4.13,7.33,4.61,11.35c0.47,4.02-0.3,7.92-2.31,11.71
				c-2.01,3.79-5.5,6.74-10.46,8.87c-5.91,2.37-12.24,3.43-18.98,3.19c-6.74-0.23-13.18-0.35-19.33-0.35
				c-8.99,0-17.97,0.12-26.96,0.35c-8.99,0.24-17.97,0.95-26.96,2.13v49.3c8.51,0.48,17.03,0.48,25.54,0
				c8.51-0.47,17.03-1.06,25.54-1.77c3.78-0.23,7.56-0.59,11.35-1.06c3.78-0.47,7.68-0.47,11.7,0c5.2,0.71,9.22,2.84,12.06,6.38
				c2.84,3.55,4.55,7.51,5.14,11.88c0.59,4.38-0.18,8.69-2.31,12.95c-2.13,4.26-5.56,7.33-10.28,9.22
				c-4.02,1.66-9.46,2.9-16.32,3.72c-6.86,0.83-14.07,1.42-21.64,1.77c-7.57,0.35-15.02,0.53-22.35,0.53
				c-7.33,0-13.48-0.12-18.44-0.36v43.63c13,1.66,26.13,1.89,39.37,0.71c13.24-1.18,26.25-3.42,39.01-6.74H721.42z"/>
		</g>
		<g>
			<path class="st2" d="M1026.45,640.44c-0.71,5.2-2.61,9.63-5.68,13.3c-3.08,3.66-6.62,6.21-10.64,7.63
				c-4.02,1.42-8.16,1.47-12.41,0.18c-4.26-1.3-7.8-4.43-10.64-9.4c-2.37-4.02-3.72-8.21-4.08-12.59
				c-0.35-4.37-0.77-8.92-1.24-13.66c-0.48-5.2-1.01-9.75-1.6-13.65c-0.59-3.9-1.24-8.45-1.95-13.66
				c-2.13-14.19-4.49-28.2-7.09-42.03c-2.61-13.83-5.56-27.72-8.87-41.68c-4.73,11.83-9.22,23.53-13.48,35.11
				c-4.26,11.59-8.51,23.29-12.77,35.11c-3.31,8.75-6.56,17.56-9.75,26.42c-3.19,8.87-6.92,17.44-11.17,25.72
				c-1.42,2.84-3.78,5.14-7.09,6.92c-3.31,1.77-6.86,2.78-10.64,3.02c-3.79,0.24-7.33-0.29-10.64-1.6c-3.31-1.3-5.8-3.49-7.45-6.56
				c-10.17-19.62-20.22-39.13-30.15-58.52c-9.93-19.39-19.86-38.89-29.79-58.52c-1.19,12.06-2.25,24.18-3.19,36.36
				c-0.95,12.18-2.01,24.3-3.19,36.35c-0.24,3.78-0.48,8.4-0.71,13.83c-0.24,5.44-0.65,10.94-1.24,16.49
				c-0.59,5.56-1.3,10.88-2.13,15.96c-0.83,5.09-2.19,9.04-4.08,11.88c-2.84,4.73-6.56,7.8-11.17,9.22
				c-4.61,1.42-9.1,1.54-13.48,0.35c-4.38-1.19-8.04-3.61-10.99-7.27c-2.96-3.67-4.32-8.34-4.08-14.01
				c0.47-9.69,1.3-19.27,2.48-28.73c1.18-9.45,2.24-19.03,3.19-28.73c1.89-21.04,3.84-41.97,5.85-62.78
				c2.01-20.8,3.96-41.85,5.85-63.13c0.47-6.14,1.71-11.82,3.72-17.02c2.01-5.2,6.32-8.87,12.95-11c2.6-0.94,5.32-1.3,8.16-1.06
				c2.84,0.24,5.44,1.06,7.8,2.48c5.2,3.31,9.28,7.86,12.24,13.65c2.95,5.8,5.73,11.29,8.34,16.49c4.49,8.51,8.87,17.09,13.12,25.72
				c4.26,8.63,8.51,17.2,12.77,25.71c5.2,10.88,10.46,21.58,15.78,32.1c5.32,10.52,10.82,21.1,16.49,31.74
				c1.42-3.55,2.78-7.09,4.08-10.64c1.3-3.55,2.66-7.09,4.08-10.64c2.6-6.15,5.02-12.35,7.27-18.62c2.24-6.26,4.55-12.47,6.92-18.62
				c3.31-8.04,6.44-15.96,9.4-23.76c2.95-7.8,5.85-15.72,8.69-23.76c2.36-5.91,4.61-12.29,6.74-19.15
				c2.13-6.86,5.55-12.65,10.29-17.38c3.31-3.55,6.92-5.67,10.82-6.38c3.9-0.71,7.56-0.41,11,0.89c3.43,1.3,6.5,3.49,9.22,6.56
				c2.72,3.08,4.67,6.62,5.85,10.64c1.42,5.44,3.07,11.59,4.97,18.44c1.89,6.86,3.55,13.01,4.97,18.44
				c2.6,9.93,4.96,19.68,7.09,29.26c2.13,9.58,4.13,19.33,6.03,29.26c3.31,16.32,6.21,32.45,8.69,48.42s4.67,32.1,6.56,48.41V640.44
				z"/>
			<path class="st3" d="M1026.45,640.44c-0.71,5.2-2.61,9.63-5.68,13.3c-3.08,3.66-6.62,6.21-10.64,7.63
				c-4.02,1.42-8.16,1.47-12.41,0.18c-4.26-1.3-7.8-4.43-10.64-9.4c-2.37-4.02-3.72-8.21-4.08-12.59
				c-0.35-4.37-0.77-8.92-1.24-13.66c-0.48-5.2-1.01-9.75-1.6-13.65c-0.59-3.9-1.24-8.45-1.95-13.66
				c-2.13-14.19-4.49-28.2-7.09-42.03c-2.61-13.83-5.56-27.72-8.87-41.68c-4.73,11.83-9.22,23.53-13.48,35.11
				c-4.26,11.59-8.51,23.29-12.77,35.11c-3.31,8.75-6.56,17.56-9.75,26.42c-3.19,8.87-6.92,17.44-11.17,25.72
				c-1.42,2.84-3.78,5.14-7.09,6.92c-3.31,1.77-6.86,2.78-10.64,3.02c-3.79,0.24-7.33-0.29-10.64-1.6c-3.31-1.3-5.8-3.49-7.45-6.56
				c-10.17-19.62-20.22-39.13-30.15-58.52c-9.93-19.39-19.86-38.89-29.79-58.52c-1.19,12.06-2.25,24.18-3.19,36.36
				c-0.95,12.18-2.01,24.3-3.19,36.35c-0.24,3.78-0.48,8.4-0.71,13.83c-0.24,5.44-0.65,10.94-1.24,16.49
				c-0.59,5.56-1.3,10.88-2.13,15.96c-0.83,5.09-2.19,9.04-4.08,11.88c-2.84,4.73-6.56,7.8-11.17,9.22
				c-4.61,1.42-9.1,1.54-13.48,0.35c-4.38-1.19-8.04-3.61-10.99-7.27c-2.96-3.67-4.32-8.34-4.08-14.01
				c0.47-9.69,1.3-19.27,2.48-28.73c1.18-9.45,2.24-19.03,3.19-28.73c1.89-21.04,3.84-41.97,5.85-62.78
				c2.01-20.8,3.96-41.85,5.85-63.13c0.47-6.14,1.71-11.82,3.72-17.02c2.01-5.2,6.32-8.87,12.95-11c2.6-0.94,5.32-1.3,8.16-1.06
				c2.84,0.24,5.44,1.06,7.8,2.48c5.2,3.31,9.28,7.86,12.24,13.65c2.95,5.8,5.73,11.29,8.34,16.49c4.49,8.51,8.87,17.09,13.12,25.72
				c4.26,8.63,8.51,17.2,12.77,25.71c5.2,10.88,10.46,21.58,15.78,32.1c5.32,10.52,10.82,21.1,16.49,31.74
				c1.42-3.55,2.78-7.09,4.08-10.64c1.3-3.55,2.66-7.09,4.08-10.64c2.6-6.15,5.02-12.35,7.27-18.62c2.24-6.26,4.55-12.47,6.92-18.62
				c3.31-8.04,6.44-15.96,9.4-23.76c2.95-7.8,5.85-15.72,8.69-23.76c2.36-5.91,4.61-12.29,6.74-19.15
				c2.13-6.86,5.55-12.65,10.29-17.38c3.31-3.55,6.92-5.67,10.82-6.38c3.9-0.71,7.56-0.41,11,0.89c3.43,1.3,6.5,3.49,9.22,6.56
				c2.72,3.08,4.67,6.62,5.85,10.64c1.42,5.44,3.07,11.59,4.97,18.44c1.89,6.86,3.55,13.01,4.97,18.44
				c2.6,9.93,4.96,19.68,7.09,29.26c2.13,9.58,4.13,19.33,6.03,29.26c3.31,16.32,6.21,32.45,8.69,48.42s4.67,32.1,6.56,48.41V640.44
				z"/>
		</g>
		<g>
			<path class="st2" d="M1176.83,605.68c4.26,0.24,7.98,1.36,11.17,3.37c3.19,2.01,5.79,4.43,7.8,7.27
				c2.01,2.84,3.19,6.09,3.55,9.75c0.35,3.67-0.42,7.39-2.31,11.17c-0.71,1.66-2.19,3.61-4.43,5.85c-2.25,2.25-4.32,3.61-6.21,4.08
				c-15.13,4.49-30.68,7.27-46.64,8.34c-15.96,1.06-31.74,0.76-47.35-0.89c-4.49-0.48-9.4-0.95-14.72-1.42
				c-5.32-0.48-9.99-2.01-14.01-4.61c-7.33-4.73-10.99-11.47-10.99-20.22v-151.1c-2.6-1.89-4.73-4.26-6.38-7.09
				c-1.66-2.84-2.66-5.85-3.02-9.05c-0.35-3.19,0.05-6.26,1.24-9.22c1.18-2.95,3.19-5.5,6.03-7.63c4.73-3.78,10.16-6.32,16.32-7.63
				c6.15-1.3,12.18-2.42,18.09-3.37c12.29-1.89,24.59-2.84,36.89-2.84c12.29,0,24.83-0.12,37.6-0.35c3.78,0,8.16-0.29,13.12-0.89
				c4.97-0.59,9.34-0.18,13.12,1.24c4.49,1.66,8.04,4.26,10.64,7.8c2.6,3.55,4.13,7.33,4.61,11.35c0.47,4.02-0.3,7.92-2.31,11.71
				c-2.01,3.79-5.5,6.74-10.46,8.87c-5.91,2.37-12.24,3.43-18.98,3.19c-6.74-0.23-13.18-0.35-19.33-0.35
				c-8.99,0-17.97,0.12-26.96,0.35c-8.99,0.24-17.97,0.95-26.96,2.13v49.3c8.51,0.48,17.03,0.48,25.54,0
				c8.51-0.47,17.03-1.06,25.54-1.77c3.78-0.23,7.56-0.59,11.35-1.06c3.78-0.47,7.68-0.47,11.7,0c5.2,0.71,9.22,2.84,12.06,6.38
				c2.84,3.55,4.55,7.51,5.14,11.88c0.59,4.38-0.18,8.69-2.31,12.95c-2.13,4.26-5.56,7.33-10.29,9.22
				c-4.02,1.66-9.46,2.9-16.32,3.72c-6.86,0.83-14.07,1.42-21.64,1.77c-7.57,0.35-15.02,0.53-22.35,0.53
				c-7.33,0-13.48-0.12-18.44-0.36v43.63c13,1.66,26.13,1.89,39.37,0.71c13.24-1.18,26.25-3.42,39.01-6.74H1176.83z"/>
			<path class="st3" d="M1176.83,605.68c4.26,0.24,7.98,1.36,11.17,3.37c3.19,2.01,5.79,4.43,7.8,7.27
				c2.01,2.84,3.19,6.09,3.55,9.75c0.35,3.67-0.42,7.39-2.31,11.17c-0.71,1.66-2.19,3.61-4.43,5.85c-2.25,2.25-4.32,3.61-6.21,4.08
				c-15.13,4.49-30.68,7.27-46.64,8.34c-15.96,1.06-31.74,0.76-47.35-0.89c-4.49-0.48-9.4-0.95-14.72-1.42
				c-5.32-0.48-9.99-2.01-14.01-4.61c-7.33-4.73-10.99-11.47-10.99-20.22v-151.1c-2.6-1.89-4.73-4.26-6.38-7.09
				c-1.66-2.84-2.66-5.85-3.02-9.05c-0.35-3.19,0.05-6.26,1.24-9.22c1.18-2.95,3.19-5.5,6.03-7.63c4.73-3.78,10.16-6.32,16.32-7.63
				c6.15-1.3,12.18-2.42,18.09-3.37c12.29-1.89,24.59-2.84,36.89-2.84c12.29,0,24.83-0.12,37.6-0.35c3.78,0,8.16-0.29,13.12-0.89
				c4.97-0.59,9.34-0.18,13.12,1.24c4.49,1.66,8.04,4.26,10.64,7.8c2.6,3.55,4.13,7.33,4.61,11.35c0.47,4.02-0.3,7.92-2.31,11.71
				c-2.01,3.79-5.5,6.74-10.46,8.87c-5.91,2.37-12.24,3.43-18.98,3.19c-6.74-0.23-13.18-0.35-19.33-0.35
				c-8.99,0-17.97,0.12-26.96,0.35c-8.99,0.24-17.97,0.95-26.96,2.13v49.3c8.51,0.48,17.03,0.48,25.54,0
				c8.51-0.47,17.03-1.06,25.54-1.77c3.78-0.23,7.56-0.59,11.35-1.06c3.78-0.47,7.68-0.47,11.7,0c5.2,0.71,9.22,2.84,12.06,6.38
				c2.84,3.55,4.55,7.51,5.14,11.88c0.59,4.38-0.18,8.69-2.31,12.95c-2.13,4.26-5.56,7.33-10.29,9.22
				c-4.02,1.66-9.46,2.9-16.32,3.72c-6.86,0.83-14.07,1.42-21.64,1.77c-7.57,0.35-15.02,0.53-22.35,0.53
				c-7.33,0-13.48-0.12-18.44-0.36v43.63c13,1.66,26.13,1.89,39.37,0.71c13.24-1.18,26.25-3.42,39.01-6.74H1176.83z"/>
		</g>
		<g>
			<path class="st2" d="M1276.14,640.8c-0.71,5.91-3.19,10.76-7.45,14.54c-4.26,3.78-8.87,6.21-13.83,7.27
				c-4.97,1.06-9.52,0.53-13.66-1.6c-4.14-2.13-6.33-6.38-6.56-12.77c-1.19-27.19-1.77-55.39-1.77-84.59c0-29.2,0-58.22,0-87.08
				c-3.78-1.42-6.62-3.55-8.51-6.38c-1.89-2.84-3.02-5.97-3.37-9.4c-0.35-3.42,0.06-6.92,1.24-10.46c1.18-3.55,2.95-6.62,5.32-9.22
				c2.6-2.84,6.14-5.44,10.64-7.8c4.49-2.36,9.4-4.55,14.72-6.56c5.32-2.01,10.58-3.72,15.78-5.14c5.2-1.42,9.58-2.48,13.12-3.19
				c14.9-3.07,29.91-3.01,45.04,0.18c15.13,3.19,28.43,8.93,39.9,17.2c11.47,8.28,20.04,19.04,25.72,32.28
				c5.67,13.25,6.26,28.37,1.77,45.4c-1.42,4.73-3.19,9.46-5.32,14.19c-2.13,4.73-4.61,9.11-7.45,13.12
				c-4.02,6.15-8.75,11.59-14.19,16.32c-5.44,4.73-11.35,9.1-17.73,13.12c4.49,4.73,8.74,9.7,12.77,14.9
				c4.02,5.2,8.51,9.93,13.48,14.19c1.89,1.66,4.67,4.26,8.34,7.8c3.66,3.55,7.21,7.33,10.64,11.35c3.42,4.02,6.44,7.98,9.04,11.88
				c2.6,3.9,3.78,7.16,3.55,9.75c-0.24,4.49-1.48,8.57-3.72,12.24c-2.25,3.66-4.97,6.5-8.16,8.51c-3.19,2.01-6.68,3.02-10.46,3.02
				c-3.78,0-7.57-1.3-11.35-3.9c-4.26-3.31-8.28-7.22-12.06-11.71c-3.78-4.49-7.45-8.63-11-12.41c-7.8-8.51-15.43-17.08-22.88-25.72
				c-7.45-8.63-15.07-17.08-22.88-25.36c-4.73,0.95-9.52,1.6-14.36,1.95c-4.85,0.35-9.64,0.77-14.36,1.24v50.37V640.8z
				 M1339.63,469.13c-9.46-5.67-19.81-8.87-31.04-9.58c-11.23-0.71-22.05,0.83-32.45,4.61v80.16c10.64-0.71,21.1-2.07,31.39-4.08
				c10.29-2.01,19.8-6.44,28.55-13.3c4.73-3.78,8.57-8.21,11.53-13.3c2.95-5.08,4.73-10.29,5.32-15.61
				c0.59-5.32-0.12-10.52-2.13-15.61C1348.79,477.35,1345.06,472.91,1339.63,469.13z"/>
			<path class="st3" d="M1276.14,640.8c-0.71,5.91-3.19,10.76-7.45,14.54c-4.26,3.78-8.87,6.21-13.83,7.27
				c-4.97,1.06-9.52,0.53-13.66-1.6c-4.14-2.13-6.33-6.38-6.56-12.77c-1.19-27.19-1.77-55.39-1.77-84.59c0-29.2,0-58.22,0-87.08
				c-3.78-1.42-6.62-3.55-8.51-6.38c-1.89-2.84-3.02-5.97-3.37-9.4c-0.35-3.42,0.06-6.92,1.24-10.46c1.18-3.55,2.95-6.62,5.32-9.22
				c2.6-2.84,6.14-5.44,10.64-7.8c4.49-2.36,9.4-4.55,14.72-6.56c5.32-2.01,10.58-3.72,15.78-5.14c5.2-1.42,9.58-2.48,13.12-3.19
				c14.9-3.07,29.91-3.01,45.04,0.18c15.13,3.19,28.43,8.93,39.9,17.2c11.47,8.28,20.04,19.04,25.72,32.28
				c5.67,13.25,6.26,28.37,1.77,45.4c-1.42,4.73-3.19,9.46-5.32,14.19c-2.13,4.73-4.61,9.11-7.45,13.12
				c-4.02,6.15-8.75,11.59-14.19,16.32c-5.44,4.73-11.35,9.1-17.73,13.12c4.49,4.73,8.74,9.7,12.77,14.9
				c4.02,5.2,8.51,9.93,13.48,14.19c1.89,1.66,4.67,4.26,8.34,7.8c3.66,3.55,7.21,7.33,10.64,11.35c3.42,4.02,6.44,7.98,9.04,11.88
				c2.6,3.9,3.78,7.16,3.55,9.75c-0.24,4.49-1.48,8.57-3.72,12.24c-2.25,3.66-4.97,6.5-8.16,8.51c-3.19,2.01-6.68,3.02-10.46,3.02
				c-3.78,0-7.57-1.3-11.35-3.9c-4.26-3.31-8.28-7.22-12.06-11.71c-3.78-4.49-7.45-8.63-11-12.41c-7.8-8.51-15.43-17.08-22.88-25.72
				c-7.45-8.63-15.07-17.08-22.88-25.36c-4.73,0.95-9.52,1.6-14.36,1.95c-4.85,0.35-9.64,0.77-14.36,1.24v50.37V640.8z
				 M1339.63,469.13c-9.46-5.67-19.81-8.87-31.04-9.58c-11.23-0.71-22.05,0.83-32.45,4.61v80.16c10.64-0.71,21.1-2.07,31.39-4.08
				c10.29-2.01,19.8-6.44,28.55-13.3c4.73-3.78,8.57-8.21,11.53-13.3c2.95-5.08,4.73-10.29,5.32-15.61
				c0.59-5.32-0.12-10.52-2.13-15.61C1348.79,477.35,1345.06,472.91,1339.63,469.13z"/>
		</g>
		<g>
			<path class="st2" d="M1534,637.96c-0.71,5.91-2.9,10.76-6.56,14.54c-3.67,3.78-7.8,6.15-12.42,7.09
				c-4.61,0.94-9.04,0.36-13.3-1.77c-4.26-2.13-7.33-6.27-9.22-12.41c-1.19-4.02-1.95-8.39-2.31-13.12
				c-0.35-4.73-0.48-9.4-0.35-14.01c0.12-4.61,0.29-9.04,0.53-13.3c0.23-4.26,0.35-7.8,0.35-10.64c0-6.86-0.06-13.6-0.18-20.22
				c-0.12-6.62-0.18-13.36-0.18-20.22c-11.59-11.11-22.17-22.88-31.75-35.29c-9.58-12.41-18.15-25.71-25.71-39.9
				c-2.37-4.26-4.61-8.92-6.74-14.01c-2.13-5.08-3.31-10.11-3.55-15.07c-1.19-4.49-0.71-8.57,1.42-12.24
				c2.13-3.66,5.02-6.5,8.69-8.51c3.66-2.01,7.68-2.95,12.06-2.84c4.37,0.12,8.34,1.6,11.88,4.43c2.6,2.13,4.73,4.61,6.38,7.45
				c1.65,2.84,3.07,5.85,4.26,9.04c1.18,3.19,2.31,6.45,3.37,9.75c1.06,3.31,2.42,6.38,4.08,9.22c4.97,8.99,10.46,17.32,16.49,25.01
				c6.03,7.69,12.47,15.31,19.33,22.88c6.14-8.27,12.77-16.02,19.86-23.23c7.09-7.21,13.6-14.95,19.51-23.23
				c1.18-1.89,2.95-4.79,5.32-8.69c2.36-3.9,4.84-7.98,7.45-12.24c2.6-4.26,5.32-8.21,8.16-11.88c2.84-3.66,5.32-6.09,7.45-7.27
				c3.78-2.36,7.63-3.42,11.53-3.19c3.9,0.24,7.45,1.42,10.64,3.55c3.19,2.13,5.73,5.03,7.63,8.69c1.89,3.67,2.6,7.63,2.13,11.88
				c-0.48,4.49-2.54,9.93-6.21,16.32c-3.67,6.38-7.93,12.89-12.77,19.51c-4.85,6.62-9.75,12.89-14.72,18.8
				c-4.96,5.91-8.87,10.64-11.7,14.19c-2.37,2.84-4.67,5.62-6.92,8.34c-2.25,2.72-4.56,5.38-6.92,7.98
				c-3.07,3.55-6.03,7.09-8.87,10.64c-2.84,3.55-5.67,7.09-8.51,10.64c0,13.48,0,26.96,0,40.43s0.12,26.96,0.35,40.43V637.96z"/>
			<path class="st3" d="M1534,637.96c-0.71,5.91-2.9,10.76-6.56,14.54c-3.67,3.78-7.8,6.15-12.42,7.09
				c-4.61,0.94-9.04,0.36-13.3-1.77c-4.26-2.13-7.33-6.27-9.22-12.41c-1.19-4.02-1.95-8.39-2.31-13.12
				c-0.35-4.73-0.48-9.4-0.35-14.01c0.12-4.61,0.29-9.04,0.53-13.3c0.23-4.26,0.35-7.8,0.35-10.64c0-6.86-0.06-13.6-0.18-20.22
				c-0.12-6.62-0.18-13.36-0.18-20.22c-11.59-11.11-22.17-22.88-31.75-35.29c-9.58-12.41-18.15-25.71-25.71-39.9
				c-2.37-4.26-4.61-8.92-6.74-14.01c-2.13-5.08-3.31-10.11-3.55-15.07c-1.19-4.49-0.71-8.57,1.42-12.24
				c2.13-3.66,5.02-6.5,8.69-8.51c3.66-2.01,7.68-2.95,12.06-2.84c4.37,0.12,8.34,1.6,11.88,4.43c2.6,2.13,4.73,4.61,6.38,7.45
				c1.65,2.84,3.07,5.85,4.26,9.04c1.18,3.19,2.31,6.45,3.37,9.75c1.06,3.31,2.42,6.38,4.08,9.22c4.97,8.99,10.46,17.32,16.49,25.01
				c6.03,7.69,12.47,15.31,19.33,22.88c6.14-8.27,12.77-16.02,19.86-23.23c7.09-7.21,13.6-14.95,19.51-23.23
				c1.18-1.89,2.95-4.79,5.32-8.69c2.36-3.9,4.84-7.98,7.45-12.24c2.6-4.26,5.32-8.21,8.16-11.88c2.84-3.66,5.32-6.09,7.45-7.27
				c3.78-2.36,7.63-3.42,11.53-3.19c3.9,0.24,7.45,1.42,10.64,3.55c3.19,2.13,5.73,5.03,7.63,8.69c1.89,3.67,2.6,7.63,2.13,11.88
				c-0.48,4.49-2.54,9.93-6.21,16.32c-3.67,6.38-7.93,12.89-12.77,19.51c-4.85,6.62-9.75,12.89-14.72,18.8
				c-4.96,5.91-8.87,10.64-11.7,14.19c-2.37,2.84-4.67,5.62-6.92,8.34c-2.25,2.72-4.56,5.38-6.92,7.98
				c-3.07,3.55-6.03,7.09-8.87,10.64c-2.84,3.55-5.67,7.09-8.51,10.64c0,13.48,0,26.96,0,40.43s0.12,26.96,0.35,40.43V637.96z"/>
		</g>
	</g>
</g>
</svg>
