<?xml version="1.0" encoding="utf-8"?>
<!-- Generator: Adobe Illustrator 23.0.1, SVG Export Plug-In . SVG Version: 6.00 Build 0)  -->
<svg version="1.1" id="Layer_1" xmlns="http://www.w3.org/2000/svg" xmlns:xlink="http://www.w3.org/1999/xlink" x="0px" y="0px"
	 viewBox="0 0 1920 1080" style="enable-background:new 0 0 1920 1080;" xml:space="preserve">
<style type="text/css">
	.st0{fill:#FF3131;}
	.st1{fill:#FFF22E;}
	.st2{fill:none;stroke:#5111CC;stroke-width:17;stroke-miterlimit:10;}
</style>
<ellipse class="st0" cx="960" cy="540" rx="873.5" ry="184.34"/>
<g>
	<g>
		<g>
			<path class="st1" d="M448.31,672.13c-0.93,6.85-3.43,12.67-7.47,17.5c-4.05,4.82-8.71,8.17-14,10.03
				c-5.29,1.87-10.73,1.94-16.33,0.23c-5.6-1.71-10.27-5.83-14-12.36c-3.11-5.29-4.9-10.81-5.36-16.56
				c-0.47-5.75-1.01-11.74-1.63-17.96c-0.63-6.84-1.33-12.83-2.1-17.96c-0.78-5.13-1.63-11.12-2.57-17.96
				c-2.8-18.66-5.91-37.1-9.33-55.29c-3.43-18.2-7.31-36.47-11.67-54.82c-6.23,15.56-12.13,30.95-17.73,46.19
				c-5.6,15.24-11.2,30.64-16.8,46.19c-4.36,11.51-8.63,23.1-12.83,34.76c-4.2,11.67-9.1,22.94-14.7,33.83
				c-1.87,3.73-4.98,6.77-9.33,9.1c-4.36,2.33-9.03,3.66-14,3.97c-4.98,0.31-9.65-0.39-14-2.1c-4.36-1.7-7.63-4.58-9.8-8.63
				c-13.38-25.82-26.6-51.48-39.66-76.99c-13.06-25.5-26.13-51.16-39.19-76.99c-1.56,15.86-2.96,31.81-4.2,47.83
				c-1.25,16.02-2.65,31.96-4.2,47.83c-0.31,4.98-0.63,11.05-0.93,18.2c-0.31,7.16-0.86,14.39-1.63,21.7
				c-0.78,7.31-1.71,14.31-2.8,21c-1.09,6.69-2.88,11.9-5.37,15.63c-3.73,6.22-8.63,10.27-14.7,12.13
				c-6.06,1.87-11.98,2.02-17.73,0.47c-5.76-1.56-10.58-4.74-14.46-9.56c-3.89-4.83-5.68-10.97-5.36-18.43
				c0.62-12.75,1.71-25.35,3.27-37.8c1.55-12.44,2.95-25.04,4.2-37.79c2.49-27.68,5.05-55.21,7.7-82.59
				c2.64-27.37,5.2-55.06,7.7-83.05c0.62-8.08,2.25-15.55,4.9-22.4c2.64-6.84,8.32-11.67,17.03-14.46c3.42-1.24,7-1.71,10.73-1.4
				c3.73,0.31,7.15,1.4,10.27,3.27c6.84,4.36,12.2,10.35,16.1,17.96c3.89,7.63,7.54,14.86,10.97,21.7
				c5.9,11.2,11.67,22.48,17.26,33.83c5.6,11.36,11.2,22.63,16.8,33.83c6.84,14.31,13.77,28.39,20.76,42.23
				c7,13.84,14.23,27.76,21.7,41.76c1.87-4.67,3.65-9.33,5.37-14c1.71-4.67,3.5-9.33,5.36-14c3.42-8.09,6.61-16.25,9.57-24.5
				c2.95-8.24,5.98-16.4,9.1-24.5c4.35-10.57,8.47-21,12.36-31.26c3.89-10.27,7.7-20.68,11.43-31.26c3.11-7.77,6.07-16.17,8.87-25.2
				c2.8-9.02,7.31-16.64,13.53-22.86c4.35-4.67,9.1-7.47,14.23-8.4c5.13-0.93,9.95-0.54,14.46,1.17c4.51,1.71,8.55,4.59,12.13,8.63
				c3.57,4.05,6.14,8.71,7.7,14c1.87,7.16,4.04,15.24,6.53,24.26c2.49,9.03,4.66,17.11,6.53,24.26c3.42,13.06,6.53,25.9,9.33,38.49
				c2.8,12.6,5.44,25.43,7.93,38.49c4.35,21.46,8.17,42.69,11.43,63.69c3.27,21,6.14,42.23,8.63,63.69V672.13z"/>
			<path class="st2" d="M448.31,672.13c-0.93,6.85-3.43,12.67-7.47,17.5c-4.05,4.82-8.71,8.17-14,10.03
				c-5.29,1.87-10.73,1.94-16.33,0.23c-5.6-1.71-10.27-5.83-14-12.36c-3.11-5.29-4.9-10.81-5.36-16.56
				c-0.47-5.75-1.01-11.74-1.63-17.96c-0.63-6.84-1.33-12.83-2.1-17.96c-0.78-5.13-1.63-11.12-2.57-17.96
				c-2.8-18.66-5.91-37.1-9.33-55.29c-3.43-18.2-7.31-36.47-11.67-54.82c-6.23,15.56-12.13,30.95-17.73,46.19
				c-5.6,15.24-11.2,30.64-16.8,46.19c-4.36,11.51-8.63,23.1-12.83,34.76c-4.2,11.67-9.1,22.94-14.7,33.83
				c-1.87,3.73-4.98,6.77-9.33,9.1c-4.36,2.33-9.03,3.66-14,3.97c-4.98,0.31-9.65-0.39-14-2.1c-4.36-1.7-7.63-4.58-9.8-8.63
				c-13.38-25.82-26.6-51.48-39.66-76.99c-13.06-25.5-26.13-51.16-39.19-76.99c-1.56,15.86-2.96,31.81-4.2,47.83
				c-1.25,16.02-2.65,31.96-4.2,47.83c-0.31,4.98-0.63,11.05-0.93,18.2c-0.31,7.16-0.86,14.39-1.63,21.7
				c-0.78,7.31-1.71,14.31-2.8,21c-1.09,6.69-2.88,11.9-5.37,15.63c-3.73,6.22-8.63,10.27-14.7,12.13
				c-6.06,1.87-11.98,2.02-17.73,0.47c-5.76-1.56-10.58-4.74-14.46-9.56c-3.89-4.83-5.68-10.97-5.36-18.43
				c0.62-12.75,1.71-25.35,3.27-37.8c1.55-12.44,2.95-25.04,4.2-37.79c2.49-27.68,5.05-55.21,7.7-82.59
				c2.64-27.37,5.2-55.06,7.7-83.05c0.62-8.08,2.25-15.55,4.9-22.4c2.64-6.84,8.32-11.67,17.03-14.46c3.42-1.24,7-1.71,10.73-1.4
				c3.73,0.31,7.15,1.4,10.27,3.27c6.84,4.36,12.2,10.35,16.1,17.96c3.89,7.63,7.54,14.86,10.97,21.7
				c5.9,11.2,11.67,22.48,17.26,33.83c5.6,11.36,11.2,22.63,16.8,33.83c6.84,14.31,13.77,28.39,20.76,42.23
				c7,13.84,14.23,27.76,21.7,41.76c1.87-4.67,3.65-9.33,5.37-14c1.71-4.67,3.5-9.33,5.36-14c3.42-8.09,6.61-16.25,9.57-24.5
				c2.95-8.24,5.98-16.4,9.1-24.5c4.35-10.57,8.47-21,12.36-31.26c3.89-10.27,7.7-20.68,11.43-31.26c3.11-7.77,6.07-16.17,8.87-25.2
				c2.8-9.02,7.31-16.64,13.53-22.86c4.35-4.67,9.1-7.47,14.23-8.4c5.13-0.93,9.95-0.54,14.46,1.17c4.51,1.71,8.55,4.59,12.13,8.63
				c3.57,4.05,6.14,8.71,7.7,14c1.87,7.16,4.04,15.24,6.53,24.26c2.49,9.03,4.66,17.11,6.53,24.26c3.42,13.06,6.53,25.9,9.33,38.49
				c2.8,12.6,5.44,25.43,7.93,38.49c4.35,21.46,8.17,42.69,11.43,63.69c3.27,21,6.14,42.23,8.63,63.69V672.13z"/>
		</g>
		<g>
			<path class="st1" d="M646.15,626.41c5.6,0.31,10.5,1.79,14.7,4.43c4.2,2.65,7.62,5.83,10.27,9.57c2.64,3.73,4.2,8.01,4.67,12.83
				c0.47,4.83-0.55,9.73-3.03,14.7c-0.93,2.18-2.88,4.75-5.83,7.7c-2.96,2.96-5.68,4.74-8.17,5.36
				c-19.91,5.91-40.36,9.57-61.36,10.97c-21,1.4-41.76,1.01-62.29-1.17c-5.91-0.63-12.37-1.25-19.36-1.87
				c-7-0.63-13.14-2.65-18.43-6.07c-9.65-6.22-14.46-15.08-14.46-26.6V457.5c-3.43-2.49-6.22-5.6-8.4-9.33
				c-2.18-3.73-3.5-7.7-3.97-11.9c-0.47-4.2,0.07-8.24,1.63-12.13c1.55-3.89,4.2-7.23,7.93-10.03c6.22-4.97,13.37-8.32,21.46-10.03
				c8.09-1.7,16.02-3.18,23.8-4.43c16.17-2.48,32.35-3.73,48.53-3.73c16.17,0,32.66-0.15,49.46-0.47c4.97,0,10.73-0.39,17.26-1.17
				c6.53-0.77,12.29-0.23,17.26,1.63c5.9,2.18,10.57,5.6,14,10.27c3.42,4.67,5.44,9.65,6.06,14.93c0.62,5.29-0.39,10.43-3.03,15.4
				c-2.65,4.98-7.23,8.87-13.76,11.67c-7.78,3.11-16.1,4.51-24.96,4.2c-8.87-0.31-17.34-0.47-25.43-0.47
				c-11.82,0-23.64,0.16-35.46,0.47c-11.82,0.31-23.64,1.25-35.46,2.8v64.86c11.2,0.63,22.4,0.63,33.59,0
				c11.2-0.62,22.4-1.4,33.59-2.33c4.97-0.31,9.95-0.77,14.93-1.4c4.97-0.62,10.1-0.62,15.4,0c6.84,0.93,12.13,3.73,15.86,8.4
				c3.73,4.66,5.99,9.88,6.77,15.63c0.77,5.76-0.23,11.43-3.03,17.03c-2.8,5.6-7.31,9.65-13.53,12.13
				c-5.29,2.18-12.45,3.81-21.46,4.9c-9.03,1.09-18.51,1.87-28.46,2.33c-9.96,0.47-19.76,0.7-29.4,0.7
				c-9.65,0-17.73-0.15-24.26-0.47v57.39c17.1,2.18,34.37,2.49,51.79,0.93c17.42-1.55,34.53-4.5,51.32-8.87H646.15z"/>
			<path class="st2" d="M646.15,626.41c5.6,0.31,10.5,1.79,14.7,4.43c4.2,2.65,7.62,5.83,10.27,9.57c2.64,3.73,4.2,8.01,4.67,12.83
				c0.47,4.83-0.55,9.73-3.03,14.7c-0.93,2.18-2.88,4.75-5.83,7.7c-2.96,2.96-5.68,4.74-8.17,5.36
				c-19.91,5.91-40.36,9.57-61.36,10.97c-21,1.4-41.76,1.01-62.29-1.17c-5.91-0.63-12.37-1.25-19.36-1.87
				c-7-0.63-13.14-2.65-18.43-6.07c-9.65-6.22-14.46-15.08-14.46-26.6V457.5c-3.43-2.49-6.22-5.6-8.4-9.33
				c-2.18-3.73-3.5-7.7-3.97-11.9c-0.47-4.2,0.07-8.24,1.63-12.13c1.55-3.89,4.2-7.23,7.93-10.03c6.22-4.97,13.37-8.32,21.46-10.03
				c8.09-1.7,16.02-3.18,23.8-4.43c16.17-2.48,32.35-3.73,48.53-3.73c16.17,0,32.66-0.15,49.46-0.47c4.97,0,10.73-0.39,17.26-1.17
				c6.53-0.77,12.29-0.23,17.26,1.63c5.9,2.18,10.57,5.6,14,10.27c3.42,4.67,5.44,9.65,6.06,14.93c0.62,5.29-0.39,10.43-3.03,15.4
				c-2.65,4.98-7.23,8.87-13.76,11.67c-7.78,3.11-16.1,4.51-24.96,4.2c-8.87-0.31-17.34-0.47-25.43-0.47
				c-11.82,0-23.64,0.16-35.46,0.47c-11.82,0.31-23.64,1.25-35.46,2.8v64.86c11.2,0.63,22.4,0.63,33.59,0
				c11.2-0.62,22.4-1.4,33.59-2.33c4.97-0.31,9.95-0.77,14.93-1.4c4.97-0.62,10.1-0.62,15.4,0c6.84,0.93,12.13,3.73,15.86,8.4
				c3.73,4.66,5.99,9.88,6.77,15.63c0.77,5.76-0.23,11.43-3.03,17.03c-2.8,5.6-7.31,9.65-13.53,12.13
				c-5.29,2.18-12.45,3.81-21.46,4.9c-9.03,1.09-18.51,1.87-28.46,2.33c-9.96,0.47-19.76,0.7-29.4,0.7
				c-9.65,0-17.73-0.15-24.26-0.47v57.39c17.1,2.18,34.37,2.49,51.79,0.93c17.42-1.55,34.53-4.5,51.32-8.87H646.15z"/>
		</g>
		<g>
			<path class="st1" d="M1047.41,672.13c-0.93,6.85-3.43,12.67-7.47,17.5c-4.05,4.82-8.71,8.17-14,10.03
				c-5.29,1.87-10.73,1.94-16.33,0.23c-5.6-1.71-10.27-5.83-14-12.36c-3.11-5.29-4.9-10.81-5.36-16.56
				c-0.47-5.75-1.01-11.74-1.63-17.96c-0.63-6.84-1.33-12.83-2.1-17.96c-0.78-5.13-1.63-11.12-2.57-17.96
				c-2.8-18.66-5.91-37.1-9.33-55.29c-3.43-18.2-7.31-36.47-11.67-54.82c-6.23,15.56-12.13,30.95-17.73,46.19
				c-5.6,15.24-11.2,30.64-16.8,46.19c-4.36,11.51-8.63,23.1-12.83,34.76c-4.2,11.67-9.1,22.94-14.7,33.83
				c-1.87,3.73-4.98,6.77-9.33,9.1c-4.36,2.33-9.03,3.66-14,3.97c-4.98,0.31-9.65-0.39-14-2.1c-4.36-1.7-7.63-4.58-9.8-8.63
				c-13.38-25.82-26.6-51.48-39.66-76.99c-13.06-25.5-26.13-51.16-39.19-76.99c-1.56,15.86-2.96,31.81-4.2,47.83
				c-1.25,16.02-2.65,31.96-4.2,47.83c-0.31,4.98-0.63,11.05-0.93,18.2c-0.31,7.16-0.86,14.39-1.63,21.7
				c-0.78,7.31-1.71,14.31-2.8,21c-1.09,6.69-2.88,11.9-5.37,15.63c-3.73,6.22-8.63,10.27-14.7,12.13
				c-6.06,1.87-11.98,2.02-17.73,0.47c-5.76-1.56-10.58-4.74-14.46-9.56c-3.89-4.83-5.68-10.97-5.36-18.43
				c0.62-12.75,1.71-25.35,3.27-37.8c1.55-12.44,2.95-25.04,4.2-37.79c2.49-27.68,5.05-55.21,7.7-82.59
				c2.64-27.37,5.2-55.06,7.7-83.05c0.62-8.08,2.25-15.55,4.9-22.4c2.64-6.84,8.32-11.67,17.03-14.46c3.42-1.24,7-1.71,10.73-1.4
				c3.73,0.31,7.15,1.4,10.27,3.27c6.84,4.36,12.2,10.35,16.1,17.96c3.89,7.63,7.54,14.86,10.97,21.7
				c5.91,11.2,11.67,22.48,17.26,33.83c5.6,11.36,11.2,22.63,16.8,33.83c6.84,14.31,13.77,28.39,20.76,42.23
				c7,13.84,14.23,27.76,21.7,41.76c1.87-4.67,3.65-9.33,5.37-14c1.71-4.67,3.5-9.33,5.36-14c3.42-8.09,6.61-16.25,9.57-24.5
				c2.95-8.24,5.98-16.4,9.1-24.5c4.35-10.57,8.47-21,12.36-31.26c3.89-10.27,7.7-20.68,11.43-31.26c3.11-7.77,6.07-16.17,8.87-25.2
				c2.8-9.02,7.31-16.64,13.53-22.86c4.35-4.67,9.1-7.47,14.23-8.4c5.13-0.93,9.95-0.54,14.46,1.17c4.51,1.71,8.55,4.59,12.13,8.63
				c3.57,4.05,6.14,8.71,7.7,14c1.87,7.16,4.04,15.24,6.53,24.26c2.49,9.03,4.66,17.11,6.53,24.26c3.42,13.06,6.53,25.9,9.33,38.49
				c2.8,12.6,5.44,25.43,7.93,38.49c4.35,21.46,8.17,42.69,11.43,63.69c3.27,21,6.14,42.23,8.63,63.69V672.13z"/>
			<path class="st2" d="M1047.41,672.13c-0.93,6.85-3.43,12.67-7.47,17.5c-4.05,4.82-8.71,8.17-14,10.03
				c-5.29,1.87-10.73,1.94-16.33,0.23c-5.6-1.71-10.27-5.83-14-12.36c-3.11-5.29-4.9-10.81-5.36-16.56
				c-0.47-5.75-1.01-11.74-1.63-17.96c-0.63-6.84-1.33-12.83-2.1-17.96c-0.78-5.13-1.63-11.12-2.57-17.96
				c-2.8-18.66-5.91-37.1-9.33-55.29c-3.43-18.2-7.31-36.47-11.67-54.82c-6.23,15.56-12.13,30.95-17.73,46.19
				c-5.6,15.24-11.2,30.64-16.8,46.19c-4.36,11.51-8.63,23.1-12.83,34.76c-4.2,11.67-9.1,22.94-14.7,33.83
				c-1.87,3.73-4.98,6.77-9.33,9.1c-4.36,2.33-9.03,3.66-14,3.97c-4.98,0.31-9.65-0.39-14-2.1c-4.36-1.7-7.63-4.58-9.8-8.63
				c-13.38-25.82-26.6-51.48-39.66-76.99c-13.06-25.5-26.13-51.16-39.19-76.99c-1.56,15.86-2.96,31.81-4.2,47.83
				c-1.25,16.02-2.65,31.96-4.2,47.83c-0.31,4.98-0.63,11.05-0.93,18.2c-0.31,7.16-0.86,14.39-1.63,21.7
				c-0.78,7.31-1.71,14.31-2.8,21c-1.09,6.69-2.88,11.9-5.37,15.63c-3.73,6.22-8.63,10.27-14.7,12.13
				c-6.06,1.87-11.98,2.02-17.73,0.47c-5.76-1.56-10.58-4.74-14.46-9.56c-3.89-4.83-5.68-10.97-5.36-18.43
				c0.62-12.75,1.71-25.35,3.27-37.8c1.55-12.44,2.95-25.04,4.2-37.79c2.49-27.68,5.05-55.21,7.7-82.59
				c2.64-27.37,5.2-55.06,7.7-83.05c0.62-8.08,2.25-15.55,4.9-22.4c2.64-6.84,8.32-11.67,17.03-14.46c3.42-1.24,7-1.71,10.73-1.4
				c3.73,0.31,7.15,1.4,10.27,3.27c6.84,4.36,12.2,10.35,16.1,17.96c3.89,7.63,7.54,14.86,10.97,21.7
				c5.91,11.2,11.67,22.48,17.26,33.83c5.6,11.36,11.2,22.63,16.8,33.83c6.84,14.31,13.77,28.39,20.76,42.23
				c7,13.84,14.23,27.76,21.7,41.76c1.87-4.67,3.65-9.33,5.37-14c1.71-4.67,3.5-9.33,5.36-14c3.42-8.09,6.61-16.25,9.57-24.5
				c2.95-8.24,5.98-16.4,9.1-24.5c4.35-10.57,8.47-21,12.36-31.26c3.89-10.27,7.7-20.68,11.43-31.26c3.11-7.77,6.07-16.17,8.87-25.2
				c2.8-9.02,7.31-16.64,13.53-22.86c4.35-4.67,9.1-7.47,14.23-8.4c5.13-0.93,9.95-0.54,14.46,1.17c4.51,1.71,8.55,4.59,12.13,8.63
				c3.57,4.05,6.14,8.71,7.7,14c1.87,7.16,4.04,15.24,6.53,24.26c2.49,9.03,4.66,17.11,6.53,24.26c3.42,13.06,6.53,25.9,9.33,38.49
				c2.8,12.6,5.44,25.43,7.93,38.49c4.35,21.46,8.17,42.69,11.43,63.69c3.27,21,6.14,42.23,8.63,63.69V672.13z"/>
		</g>
		<g>
			<path class="st1" d="M1245.24,626.41c5.6,0.31,10.5,1.79,14.7,4.43c4.2,2.65,7.62,5.83,10.27,9.57c2.64,3.73,4.2,8.01,4.67,12.83
				c0.47,4.83-0.55,9.73-3.03,14.7c-0.93,2.18-2.88,4.75-5.83,7.7c-2.96,2.96-5.68,4.74-8.17,5.36
				c-19.91,5.91-40.36,9.57-61.36,10.97c-21,1.4-41.76,1.01-62.29-1.17c-5.91-0.63-12.37-1.25-19.36-1.87
				c-7-0.63-13.14-2.65-18.43-6.07c-9.65-6.22-14.46-15.08-14.46-26.6V457.5c-3.43-2.49-6.22-5.6-8.4-9.33
				c-2.18-3.73-3.5-7.7-3.97-11.9c-0.47-4.2,0.07-8.24,1.63-12.13c1.55-3.89,4.2-7.23,7.93-10.03c6.22-4.97,13.37-8.32,21.46-10.03
				c8.09-1.7,16.02-3.18,23.8-4.43c16.17-2.48,32.35-3.73,48.53-3.73c16.17,0,32.66-0.15,49.46-0.47c4.97,0,10.73-0.39,17.26-1.17
				c6.53-0.77,12.29-0.23,17.26,1.63c5.91,2.18,10.57,5.6,14,10.27c3.42,4.67,5.44,9.65,6.06,14.93c0.62,5.29-0.39,10.43-3.03,15.4
				c-2.65,4.98-7.23,8.87-13.76,11.67c-7.78,3.11-16.1,4.51-24.96,4.2c-8.87-0.31-17.34-0.47-25.43-0.47
				c-11.82,0-23.64,0.16-35.46,0.47c-11.82,0.31-23.64,1.25-35.46,2.8v64.86c11.2,0.63,22.4,0.63,33.59,0
				c11.2-0.62,22.4-1.4,33.59-2.33c4.97-0.31,9.95-0.77,14.93-1.4c4.97-0.62,10.1-0.62,15.4,0c6.84,0.93,12.13,3.73,15.86,8.4
				c3.73,4.66,5.99,9.88,6.77,15.63c0.77,5.76-0.23,11.43-3.03,17.03c-2.8,5.6-7.31,9.65-13.53,12.13
				c-5.29,2.18-12.45,3.81-21.46,4.9c-9.03,1.09-18.51,1.87-28.46,2.33c-9.96,0.47-19.76,0.7-29.4,0.7
				c-9.65,0-17.73-0.15-24.26-0.47v57.39c17.1,2.18,34.37,2.49,51.79,0.93c17.42-1.55,34.53-4.5,51.32-8.87H1245.24z"/>
			<path class="st2" d="M1245.24,626.41c5.6,0.31,10.5,1.79,14.7,4.43c4.2,2.65,7.62,5.83,10.27,9.57c2.64,3.73,4.2,8.01,4.67,12.83
				c0.47,4.83-0.55,9.73-3.03,14.7c-0.93,2.18-2.88,4.75-5.83,7.7c-2.96,2.96-5.68,4.74-8.17,5.36
				c-19.91,5.91-40.36,9.57-61.36,10.97c-21,1.4-41.76,1.01-62.29-1.17c-5.91-0.63-12.37-1.25-19.36-1.87
				c-7-0.63-13.14-2.65-18.43-6.07c-9.65-6.22-14.46-15.08-14.46-26.6V457.5c-3.43-2.49-6.22-5.6-8.4-9.33
				c-2.18-3.73-3.5-7.7-3.97-11.9c-0.47-4.2,0.07-8.24,1.63-12.13c1.55-3.89,4.2-7.23,7.93-10.03c6.22-4.97,13.37-8.32,21.46-10.03
				c8.09-1.7,16.02-3.18,23.8-4.43c16.17-2.48,32.35-3.73,48.53-3.73c16.17,0,32.66-0.15,49.46-0.47c4.97,0,10.73-0.39,17.26-1.17
				c6.53-0.77,12.29-0.23,17.26,1.63c5.91,2.18,10.57,5.6,14,10.27c3.42,4.67,5.44,9.65,6.06,14.93c0.62,5.29-0.39,10.43-3.03,15.4
				c-2.65,4.98-7.23,8.87-13.76,11.67c-7.78,3.11-16.1,4.51-24.96,4.2c-8.87-0.31-17.34-0.47-25.43-0.47
				c-11.82,0-23.64,0.16-35.46,0.47c-11.82,0.31-23.64,1.25-35.46,2.8v64.86c11.2,0.63,22.4,0.63,33.59,0
				c11.2-0.62,22.4-1.4,33.59-2.33c4.97-0.31,9.95-0.77,14.93-1.4c4.97-0.62,10.1-0.62,15.4,0c6.84,0.93,12.13,3.73,15.86,8.4
				c3.73,4.66,5.99,9.88,6.77,15.63c0.77,5.76-0.23,11.43-3.03,17.03c-2.8,5.6-7.31,9.65-13.53,12.13
				c-5.29,2.18-12.45,3.81-21.46,4.9c-9.03,1.09-18.51,1.87-28.46,2.33c-9.96,0.47-19.76,0.7-29.4,0.7
				c-9.65,0-17.73-0.15-24.26-0.47v57.39c17.1,2.18,34.37,2.49,51.79,0.93c17.42-1.55,34.53-4.5,51.32-8.87H1245.24z"/>
		</g>
		<g>
			<path class="st1" d="M1375.88,672.6c-0.93,7.78-4.2,14.15-9.8,19.13c-5.6,4.97-11.67,8.17-18.2,9.57
				c-6.53,1.4-12.53,0.7-17.96-2.1c-5.45-2.8-8.33-8.4-8.63-16.8c-1.56-35.77-2.33-72.86-2.33-111.28c0-38.41,0-76.59,0-114.55
				c-4.98-1.87-8.71-4.66-11.2-8.4c-2.49-3.73-3.97-7.85-4.43-12.37c-0.47-4.5,0.07-9.1,1.63-13.76c1.55-4.67,3.88-8.71,7-12.13
				c3.42-3.73,8.08-7.15,14-10.27c5.91-3.1,12.37-5.98,19.36-8.63c7-2.64,13.92-4.9,20.76-6.76c6.84-1.87,12.6-3.27,17.26-4.2
				c19.6-4.04,39.35-3.96,59.26,0.23c19.9,4.2,37.4,11.75,52.49,22.63c15.08,10.89,26.36,25.04,33.83,42.46
				c7.47,17.42,8.24,37.33,2.33,59.72c-1.87,6.22-4.2,12.44-7,18.66c-2.8,6.23-6.06,11.98-9.8,17.26
				c-5.29,8.09-11.51,15.24-18.66,21.46c-7.16,6.23-14.93,11.98-23.33,17.26c5.9,6.23,11.5,12.76,16.8,19.6
				c5.29,6.84,11.2,13.06,17.73,18.66c2.49,2.18,6.14,5.6,10.97,10.27c4.82,4.67,9.49,9.65,14,14.93c4.5,5.29,8.47,10.5,11.9,15.63
				c3.42,5.13,4.97,9.41,4.67,12.83c-0.31,5.91-1.95,11.28-4.9,16.1c-2.96,4.82-6.53,8.55-10.73,11.2
				c-4.2,2.64-8.79,3.97-13.77,3.97c-4.98,0-9.96-1.71-14.93-5.13c-5.6-4.36-10.89-9.49-15.86-15.4
				c-4.98-5.91-9.8-11.35-14.46-16.33c-10.27-11.2-20.3-22.47-30.1-33.83c-9.8-11.35-19.83-22.47-30.09-33.36
				c-6.23,1.25-12.53,2.1-18.9,2.57c-6.38,0.47-12.68,1.01-18.9,1.63v66.26V672.6z M1459.4,446.77
				c-12.45-7.47-26.06-11.67-40.83-12.6c-14.78-0.93-29.01,1.09-42.69,6.06v105.45c14-0.93,27.76-2.72,41.29-5.37
				c13.53-2.64,26.05-8.47,37.56-17.5c6.22-4.97,11.27-10.81,15.16-17.5c3.89-6.69,6.22-13.53,7-20.53c0.77-7-0.16-13.84-2.8-20.53
				C1471.45,457.58,1466.56,451.75,1459.4,446.77z"/>
			<path class="st2" d="M1375.88,672.6c-0.93,7.78-4.2,14.15-9.8,19.13c-5.6,4.97-11.67,8.17-18.2,9.57
				c-6.53,1.4-12.53,0.7-17.96-2.1c-5.45-2.8-8.33-8.4-8.63-16.8c-1.56-35.77-2.33-72.86-2.33-111.28c0-38.41,0-76.59,0-114.55
				c-4.98-1.87-8.71-4.66-11.2-8.4c-2.49-3.73-3.97-7.85-4.43-12.37c-0.47-4.5,0.07-9.1,1.63-13.76c1.55-4.67,3.88-8.71,7-12.13
				c3.42-3.73,8.08-7.15,14-10.27c5.91-3.1,12.37-5.98,19.36-8.63c7-2.64,13.92-4.9,20.76-6.76c6.84-1.87,12.6-3.27,17.26-4.2
				c19.6-4.04,39.35-3.96,59.26,0.23c19.9,4.2,37.4,11.75,52.49,22.63c15.08,10.89,26.36,25.04,33.83,42.46
				c7.47,17.42,8.24,37.33,2.33,59.72c-1.87,6.22-4.2,12.44-7,18.66c-2.8,6.23-6.06,11.98-9.8,17.26
				c-5.29,8.09-11.51,15.24-18.66,21.46c-7.16,6.23-14.93,11.98-23.33,17.26c5.9,6.23,11.5,12.76,16.8,19.6
				c5.29,6.84,11.2,13.06,17.73,18.66c2.49,2.18,6.14,5.6,10.97,10.27c4.82,4.67,9.49,9.65,14,14.93c4.5,5.29,8.47,10.5,11.9,15.63
				c3.42,5.13,4.97,9.41,4.67,12.83c-0.31,5.91-1.95,11.28-4.9,16.1c-2.96,4.82-6.53,8.55-10.73,11.2
				c-4.2,2.64-8.79,3.97-13.77,3.97c-4.98,0-9.96-1.71-14.93-5.13c-5.6-4.36-10.89-9.49-15.86-15.4
				c-4.98-5.91-9.8-11.35-14.46-16.33c-10.27-11.2-20.3-22.47-30.1-33.83c-9.8-11.35-19.83-22.47-30.09-33.36
				c-6.23,1.25-12.53,2.1-18.9,2.57c-6.38,0.47-12.68,1.01-18.9,1.63v66.26V672.6z M1459.4,446.77
				c-12.45-7.47-26.06-11.67-40.83-12.6c-14.78-0.93-29.01,1.09-42.69,6.06v105.45c14-0.93,27.76-2.72,41.29-5.37
				c13.53-2.64,26.05-8.47,37.56-17.5c6.22-4.97,11.27-10.81,15.16-17.5c3.89-6.69,6.22-13.53,7-20.53c0.77-7-0.16-13.84-2.8-20.53
				C1471.45,457.58,1466.56,451.75,1459.4,446.77z"/>
		</g>
		<g>
			<path class="st1" d="M1715.1,668.87c-0.93,7.78-3.81,14.16-8.63,19.13c-4.83,4.97-10.27,8.09-16.33,9.33
				c-6.06,1.24-11.9,0.47-17.5-2.33c-5.6-2.8-9.65-8.25-12.13-16.33c-1.56-5.29-2.57-11.04-3.03-17.26
				c-0.47-6.22-0.63-12.36-0.47-18.43c0.15-6.06,0.39-11.9,0.7-17.5c0.31-5.6,0.47-10.27,0.47-14c0-9.02-0.08-17.88-0.23-26.6
				c-0.16-8.71-0.23-17.57-0.23-26.6c-15.25-14.62-29.16-30.1-41.76-46.43c-12.6-16.33-23.88-33.83-33.83-52.49
				c-3.11-5.6-6.06-11.74-8.87-18.43c-2.8-6.69-4.36-13.3-4.67-19.83c-1.56-5.9-0.93-11.27,1.87-16.1c2.8-4.82,6.61-8.55,11.43-11.2
				c4.82-2.64,10.11-3.89,15.86-3.73c5.75,0.16,10.97,2.1,15.63,5.83c3.42,2.8,6.22,6.07,8.4,9.8c2.17,3.73,4.04,7.7,5.6,11.9
				c1.55,4.2,3.03,8.48,4.43,12.83c1.4,4.36,3.19,8.4,5.37,12.13c6.53,11.82,13.76,22.79,21.7,32.89
				c7.93,10.11,16.4,20.14,25.43,30.09c8.08-10.89,16.8-21.07,26.13-30.56c9.33-9.48,17.88-19.67,25.66-30.56
				c1.55-2.49,3.88-6.3,7-11.43c3.1-5.13,6.37-10.5,9.8-16.1c3.42-5.6,7-10.8,10.73-15.63c3.73-4.82,7-8.01,9.8-9.57
				c4.97-3.11,10.03-4.5,15.16-4.2c5.13,0.31,9.8,1.87,14,4.66c4.2,2.8,7.54,6.61,10.03,11.43c2.49,4.83,3.42,10.03,2.8,15.63
				c-0.63,5.91-3.35,13.07-8.17,21.46c-4.83,8.4-10.43,16.96-16.8,25.66c-6.38,8.71-12.83,16.96-19.36,24.73
				c-6.53,7.78-11.66,14-15.4,18.66c-3.11,3.73-6.15,7.39-9.1,10.97c-2.96,3.58-5.99,7.08-9.1,10.5c-4.04,4.66-7.93,9.33-11.66,14
				c-3.73,4.67-7.47,9.33-11.2,14c0,17.73,0,35.46,0,53.19s0.15,35.46,0.47,53.19V668.87z"/>
			<path class="st2" d="M1715.1,668.87c-0.93,7.78-3.81,14.16-8.63,19.13c-4.83,4.97-10.27,8.09-16.33,9.33
				c-6.06,1.24-11.9,0.47-17.5-2.33c-5.6-2.8-9.65-8.25-12.13-16.33c-1.56-5.29-2.57-11.04-3.03-17.26
				c-0.47-6.22-0.63-12.36-0.47-18.43c0.15-6.06,0.39-11.9,0.7-17.5c0.31-5.6,0.47-10.27,0.47-14c0-9.02-0.08-17.88-0.23-26.6
				c-0.16-8.71-0.23-17.57-0.23-26.6c-15.25-14.62-29.16-30.1-41.76-46.43c-12.6-16.33-23.88-33.83-33.83-52.49
				c-3.11-5.6-6.06-11.74-8.87-18.43c-2.8-6.69-4.36-13.3-4.67-19.83c-1.56-5.9-0.93-11.27,1.87-16.1c2.8-4.82,6.61-8.55,11.43-11.2
				c4.82-2.64,10.11-3.89,15.86-3.73c5.75,0.16,10.97,2.1,15.63,5.83c3.42,2.8,6.22,6.07,8.4,9.8c2.17,3.73,4.04,7.7,5.6,11.9
				c1.55,4.2,3.03,8.48,4.43,12.83c1.4,4.36,3.19,8.4,5.37,12.13c6.53,11.82,13.76,22.79,21.7,32.89
				c7.93,10.11,16.4,20.14,25.43,30.09c8.08-10.89,16.8-21.07,26.13-30.56c9.33-9.48,17.88-19.67,25.66-30.56
				c1.55-2.49,3.88-6.3,7-11.43c3.1-5.13,6.37-10.5,9.8-16.1c3.42-5.6,7-10.8,10.73-15.63c3.73-4.82,7-8.01,9.8-9.57
				c4.97-3.11,10.03-4.5,15.16-4.2c5.13,0.31,9.8,1.87,14,4.66c4.2,2.8,7.54,6.61,10.03,11.43c2.49,4.83,3.42,10.03,2.8,15.63
				c-0.63,5.91-3.35,13.07-8.17,21.46c-4.83,8.4-10.43,16.96-16.8,25.66c-6.38,8.71-12.83,16.96-19.36,24.73
				c-6.53,7.78-11.66,14-15.4,18.66c-3.11,3.73-6.15,7.39-9.1,10.97c-2.96,3.58-5.99,7.08-9.1,10.5c-4.04,4.66-7.93,9.33-11.66,14
				c-3.73,4.67-7.47,9.33-11.2,14c0,17.73,0,35.46,0,53.19s0.15,35.46,0.47,53.19V668.87z"/>
		</g>
	</g>
</g>
</svg>
